<svg width="83" height="35" viewBox="0 0 83 35" fill="none" xmlns="http://www.w3.org/2000/svg">
<g clip-path="url(#clip0_5464_1270)">
<path d="M16.8927 0.566685C16.8507 0.167906 16.7878 0 16.6409 0C16.494 0 16.4101 0.146918 16.3261 0.335812L10.1566 13.5165L3.73528 0.314824C3.63036 0.0839535 3.54642 0 3.42051 0C3.2946 0 3.21066 0.146918 3.18968 0.37779L1.67878 14.0622C1.59484 14.8597 1.53188 15.6783 0.839389 15.8042C0.524618 15.8672 0.377725 15.8672 0.209847 15.8672C0.104924 15.8672 0 15.9091 0 15.9721C0 16.119 0.146893 16.161 0.35674 16.161C0.923328 16.161 1.93059 16.098 2.11946 16.098C2.28734 16.098 3.2946 16.161 4.07104 16.161C4.32285 16.161 4.44876 16.119 4.44876 15.9721C4.44876 15.9091 4.36482 15.8672 4.28088 15.8672C4.15498 15.8672 3.8402 15.8462 3.48346 15.7622C3.16869 15.6993 2.93786 15.4264 2.93786 15.1116C2.93786 14.7548 2.93786 14.377 2.95885 14.0412L3.79823 4.3026H3.88217C4.11301 4.86929 6.4633 9.90648 6.65216 10.2843C6.75708 10.4942 8.56177 14.1251 9.10737 15.1536C9.50608 15.9091 9.611 16.119 9.7579 16.119C9.94676 16.119 10.0097 15.9301 10.4504 15.0066L15.5917 4.09272H15.6546L16.6619 14.9227C16.7038 15.3005 16.6829 15.6573 16.5779 15.6783C16.473 15.6993 16.431 15.7412 16.431 15.8252C16.431 15.9301 16.536 15.9931 17.0186 16.0351C17.795 16.098 20.0614 16.161 20.5231 16.161C20.7749 16.161 20.9637 16.098 20.9637 15.9721C20.9637 15.8882 20.9008 15.8672 20.7959 15.8672C20.586 15.8672 20.0404 15.8672 19.4319 15.6783C18.5295 15.3844 18.3826 14.2091 18.2987 13.4535L16.8927 0.566685Z" fill="white"/>
<path d="M23.3729 8.20643C23.3729 11.9843 25.7651 16.4548 31.515 16.4548C36.5723 16.4548 39.8879 12.572 39.8879 7.87062C39.8879 2.98034 36.3624 0 31.6409 0C25.8491 0 23.3729 4.80632 23.3729 8.20643ZM25.3664 7.61876C25.3664 3.02232 27.9895 0.713602 31.494 0.713602C34.8096 0.713602 37.8733 3.42109 37.8733 8.45829C37.8733 14.5659 33.9702 15.6573 32.0815 15.6573C28.3043 15.6573 25.3664 12.509 25.3664 7.61876Z" fill="white"/>
<path d="M49.9122 1.19633L52.5562 1.23831C54.5708 1.28029 55.0744 1.76302 55.1374 2.39267L55.1583 2.62354C55.1793 2.91738 55.2213 2.98034 55.3262 2.98034C55.4102 2.98034 55.4731 2.89639 55.4731 2.70749C55.4731 2.47662 55.5361 1.02843 55.5361 0.398778C55.5361 0.272848 55.5361 0.146918 55.4312 0.146918C55.3472 0.146918 55.1583 0.209883 54.8436 0.251859C54.5078 0.314824 54.0252 0.3568 53.3537 0.3568H45.4844C45.2326 0.3568 44.4352 0.314824 43.8266 0.251859C43.26 0.209883 43.0502 0 42.9033 0C42.8193 0 42.7354 0.272848 42.6934 0.398778C42.6515 0.566685 42.2318 2.37168 42.2318 2.58156C42.2318 2.70749 42.2737 2.77046 42.3367 2.77046C42.4206 2.77046 42.4836 2.72848 42.5465 2.56057C42.6095 2.41366 42.6724 2.26674 42.9033 1.90994C43.239 1.40622 43.7427 1.2593 45.0437 1.23831L48.1495 1.19633V10.0744C48.1495 12.0893 48.1494 13.7473 48.0445 14.6289C47.9606 15.2375 47.8557 15.6993 47.436 15.7832C47.2471 15.8252 46.9953 15.8672 46.8064 15.8672C46.6805 15.8672 46.6385 15.9301 46.6385 15.9931C46.6385 16.119 46.7435 16.161 46.9743 16.161C47.6038 16.161 48.9259 16.098 49.0308 16.098C49.1357 16.098 50.4578 16.161 51.6119 16.161C51.8428 16.161 51.9477 16.098 51.9477 15.9931C51.9477 15.9301 51.9057 15.8672 51.7798 15.8672C51.5909 15.8672 51.1293 15.8252 50.8355 15.7832C50.206 15.6993 50.08 15.2375 50.0171 14.6289C49.9122 13.7473 49.9122 12.0893 49.9122 10.0744V1.19633Z" fill="white"/>
<path d="M61.0006 10.0744C61.0006 12.0893 61.0006 13.7473 60.8957 14.6289C60.8118 15.2375 60.7068 15.6993 60.2871 15.7832C60.0983 15.8252 59.8465 15.8672 59.6576 15.8672C59.5317 15.8672 59.4897 15.9301 59.4897 15.9931C59.4897 16.119 59.5946 16.161 59.8255 16.161C60.1403 16.161 60.6229 16.119 61.0426 16.119C61.4833 16.098 61.84 16.098 61.882 16.098C62.1968 16.098 62.7004 16.119 63.5188 16.161C64.3372 16.182 65.4914 16.224 67.0652 16.224C67.8836 16.224 68.0515 16.224 68.1984 15.6783C68.3033 15.2375 68.4712 13.8103 68.4712 13.6424C68.4712 13.4955 68.4712 13.3276 68.3453 13.3276C68.2404 13.3276 68.1984 13.4115 68.1564 13.6424C68.0095 14.5029 67.7577 14.9227 67.2121 15.1536C66.6665 15.3844 65.7432 15.3844 65.1976 15.3844C63.1411 15.3844 62.8263 15.1116 62.7633 13.6634C62.7424 13.2226 62.7633 10.788 62.7633 10.0744V8.22742C62.7633 8.14346 62.8053 8.0805 62.9102 8.0805C63.267 8.0805 65.3445 8.12248 65.911 8.18544C66.7295 8.26939 66.9183 8.6262 67.0023 8.92003C67.0862 9.19288 67.0862 9.40276 67.0862 9.61265C67.0862 9.71759 67.1282 9.80154 67.2331 9.80154C67.38 9.80154 67.38 9.57067 67.38 9.40276C67.38 9.25585 67.422 8.47928 67.4639 8.05951C67.5269 7.3669 67.6318 7.0101 67.6318 6.88417C67.6318 6.75824 67.5898 6.71626 67.5269 6.71626C67.4429 6.71626 67.359 6.8212 67.2121 6.98911C67.0232 7.19899 66.7295 7.24097 66.2258 7.28294C65.7432 7.32492 63.162 7.32492 62.8892 7.32492C62.7843 7.32492 62.7633 7.26196 62.7633 7.11504V1.32226C62.7633 1.17535 62.8053 1.11238 62.8892 1.11238C63.1201 1.11238 65.4074 1.13337 65.7642 1.17535C66.8973 1.30127 67.1072 1.55314 67.2541 1.88895C67.359 2.14081 67.38 2.49761 67.38 2.64453C67.38 2.81243 67.422 2.91738 67.5479 2.91738C67.6318 2.91738 67.6738 2.79145 67.6947 2.6865C67.7367 2.43464 67.7787 1.51116 67.7997 1.30127C67.8626 0.713602 67.9676 0.461742 67.9676 0.314824C67.9676 0.209883 67.9466 0.12593 67.8836 0.12593C67.7787 0.12593 67.6947 0.209883 67.5898 0.230871C67.422 0.272848 67.0862 0.314824 66.6875 0.335812C66.2048 0.3568 62.0289 0.3568 61.882 0.3568L61.0216 0.314824C60.5599 0.293836 59.9934 0.293836 59.5107 0.293836C59.2799 0.293836 59.175 0.335813 59.175 0.461742C59.175 0.545695 59.2589 0.587673 59.3428 0.587673C59.5317 0.587673 59.8884 0.608661 60.0563 0.650637C60.7488 0.797556 60.9167 1.13337 60.9587 1.84697C61.0006 2.5186 61.0006 3.10627 61.0006 6.38045V10.0744Z" fill="white"/>
<path d="M76.6206 6.38045C76.6206 3.10627 76.6206 2.5186 76.6626 1.84697C76.7046 1.11238 76.8725 0.755579 77.481 0.650637C77.7328 0.608661 78.0266 0.587673 78.1735 0.587673C78.2575 0.587673 78.3414 0.545695 78.3414 0.461742C78.3414 0.335813 78.2365 0.293836 78.0056 0.293836C77.3761 0.293836 75.8442 0.3568 75.7393 0.3568C75.6344 0.3568 74.3123 0.293836 73.368 0.293836C73.1372 0.293836 73.0323 0.335813 73.0323 0.461742C73.0323 0.545695 73.1162 0.587673 73.2001 0.587673C73.389 0.587673 73.7457 0.608661 73.9136 0.650637C74.6061 0.797556 74.774 1.13337 74.816 1.84697C74.8579 2.5186 74.8579 3.10627 74.8579 6.38045V10.0744C74.8579 12.0893 74.8579 13.7473 74.753 14.6289C74.6691 15.2375 74.5641 15.6993 74.1444 15.7832C73.9556 15.8252 73.7038 15.8672 73.5149 15.8672C73.389 15.8672 73.347 15.9301 73.347 15.9931C73.347 16.119 73.452 16.161 73.6828 16.161C73.9976 16.161 74.4592 16.14 74.8789 16.119C75.2986 16.119 75.6553 16.098 75.7393 16.098C76.3478 16.098 76.9984 16.119 77.8797 16.161C78.7611 16.182 79.8523 16.224 81.3632 16.224C82.4754 16.224 82.5383 16.14 82.6852 15.6573C82.8531 15.0486 83 13.7893 83 13.5584C83 13.3276 82.979 13.2436 82.8741 13.2436C82.7482 13.2436 82.7062 13.3486 82.6852 13.5165C82.6223 13.9152 82.4124 14.44 82.1396 14.7758C81.636 15.3844 80.7127 15.4054 79.6005 15.4054C77.9637 15.4054 77.4181 15.2585 77.0823 14.9227C76.7046 14.5449 76.6206 13.2016 76.6206 10.1164V6.38045Z" fill="white"/>
<path d="M5.3116 20.2504C4.9844 19.3996 4.72265 18.7232 4.72265 18.4396C4.72265 18.2869 4.76627 18.1124 5.00622 18.0033C5.20253 17.916 5.59517 17.8942 5.83511 17.8942C5.9878 17.8942 6.05324 17.8506 6.05324 17.7415C6.05324 17.6324 5.85693 17.5888 5.46429 17.5888C4.63539 17.5888 3.65381 17.6542 3.43568 17.6542C3.17392 17.6542 1.93057 17.5888 0.883546 17.5888C0.534537 17.5888 0.316406 17.6106 0.316406 17.7415C0.316406 17.8287 0.360032 17.8942 0.490911 17.8942C0.621789 17.8942 0.992611 17.8942 1.31981 17.9815C2.08326 18.1996 2.41046 18.4396 2.89035 19.6614L8.23455 33.0351C8.649 34.0823 8.75806 34.3877 9.01982 34.3877C9.23795 34.3877 9.3252 34.0386 9.93597 32.7296C10.4377 31.6606 11.4193 29.3044 12.7499 26.1191C13.8623 23.4357 14.953 20.8176 15.1929 20.2068C15.7819 18.7232 16.1091 18.3523 16.3926 18.156C16.8071 17.8942 17.287 17.8942 17.4397 17.8942C17.6142 17.8942 17.7014 17.8506 17.7014 17.7415C17.7014 17.6324 17.5705 17.5888 17.3306 17.5888C16.698 17.5888 15.7601 17.6542 15.6292 17.6542C15.3674 17.6542 14.364 17.5888 13.4915 17.5888C13.1425 17.5888 13.0116 17.6324 13.0116 17.7633C13.0116 17.8724 13.1207 17.8942 13.2516 17.8942C13.4915 17.8942 13.8187 17.8942 14.0805 17.9815C14.2986 18.0905 14.364 18.3087 14.364 18.4832C14.364 18.6796 14.2768 18.985 14.1677 19.3123C13.6878 20.8831 10.7649 28.4972 9.49971 31.4206L5.3116 20.2504Z" fill="white"/>
<path d="M24.0967 23.9156C24.0967 20.5122 24.0967 19.9013 24.1404 19.2032C24.184 18.4396 24.3585 18.0687 24.9475 17.9596C25.2092 17.916 25.3401 17.8942 25.4928 17.8942C25.58 17.8942 25.6673 17.8506 25.6673 17.7633C25.6673 17.6324 25.5582 17.5888 25.3183 17.5888C24.6639 17.5888 23.2897 17.6542 23.1806 17.6542C23.0715 17.6542 21.6973 17.5888 20.9775 17.5888C20.7375 17.5888 20.6285 17.6324 20.6285 17.7633C20.6285 17.8506 20.7157 17.8942 20.803 17.8942C20.9557 17.8942 21.2392 17.916 21.4792 17.9815C21.9591 18.0905 22.1772 18.4614 22.2208 19.2032C22.2644 19.9013 22.2644 20.5122 22.2644 23.9156V27.7554C22.2644 29.8498 22.2644 31.5733 22.1554 32.4896C22.0681 33.1223 21.9591 33.6023 21.5228 33.6896C21.3265 33.7332 21.0647 33.7768 20.8684 33.7768C20.7375 33.7768 20.6939 33.8423 20.6939 33.9077C20.6939 34.0386 20.803 34.0823 21.0429 34.0823C21.6973 34.0823 23.0715 34.0168 23.1806 34.0168C23.2897 34.0168 24.6639 34.0823 25.8636 34.0823C26.1035 34.0823 26.2126 34.0168 26.2126 33.9077C26.2126 33.8423 26.169 33.7768 26.0381 33.7768C25.8418 33.7768 25.3619 33.7332 25.0565 33.6896C24.4021 33.6023 24.2712 33.1223 24.2058 32.4896C24.0967 31.5733 24.0967 29.8498 24.0967 27.7554V23.9156Z" fill="white"/>
<path d="M34.7073 34.3877C35.8852 34.3877 37.0631 34.1259 38.001 33.4714C39.5061 32.4024 39.8552 30.7443 39.8552 29.8498C39.8552 28.1045 39.2444 26.7518 36.6704 24.7229L36.0597 24.2429C33.9656 22.6066 33.3985 21.8212 33.3985 20.5777C33.3985 18.985 34.5764 18.0469 36.0815 18.0469C38.0883 18.0469 38.6772 18.9632 38.8081 19.2032C38.939 19.4432 39.0699 20.0322 39.0917 20.294C39.1135 20.4686 39.1353 20.5777 39.2662 20.5777C39.3753 20.5777 39.4189 20.4249 39.4189 20.0759C39.4189 18.5923 39.5061 17.8724 39.5061 17.7633C39.5061 17.6542 39.4625 17.6106 39.288 17.6106C39.1135 17.6106 38.939 17.5888 38.5246 17.5015C37.9792 17.3706 37.3466 17.2833 36.4959 17.2833C33.7257 17.2833 31.9806 18.876 31.9806 21.2103C31.9806 22.6939 32.5041 24.0465 34.8163 25.9446L35.7979 26.7518C37.6738 28.3008 38.3064 29.1735 38.3064 30.6788C38.3064 32.0751 37.2812 33.5805 35.1872 33.5805C33.7257 33.5805 32.286 32.9696 31.9588 31.3552C31.8934 31.0497 31.8934 30.7443 31.8934 30.5479C31.8934 30.3734 31.8716 30.308 31.7407 30.308C31.6316 30.308 31.588 30.417 31.5662 30.657C31.5444 31.0061 31.4571 31.8788 31.4571 32.9696C31.4571 33.5587 31.4789 33.6459 31.7843 33.7986C32.6786 34.235 33.6821 34.3877 34.7073 34.3877Z" fill="white"/>
<path d="M44.4427 25.8137C44.4427 29.7407 46.9294 34.3877 52.9062 34.3877C58.1631 34.3877 61.6096 30.3516 61.6096 25.4646C61.6096 20.3813 57.945 17.2833 53.0371 17.2833C47.0167 17.2833 44.4427 22.2794 44.4427 25.8137ZM46.515 25.2028C46.515 20.4249 49.2416 18.0251 52.8844 18.0251C56.3308 18.0251 59.5155 20.8395 59.5155 26.0755C59.5155 32.4242 55.4583 33.5587 53.4951 33.5587C49.5688 33.5587 46.515 30.2861 46.515 25.2028Z" fill="white"/>
<path d="M67.843 20.6649C68.541 21.4503 71.0059 24.1992 73.5362 26.9263C75.8484 29.4135 78.9895 32.6205 79.2294 32.8387C80.3855 33.995 80.6473 34.235 80.8218 34.235C80.9745 34.235 81.0181 34.1259 81.0181 32.686L81.0617 19.9013C81.0617 18.5923 81.149 18.1124 81.8688 17.9596C82.1306 17.8942 82.2833 17.8942 82.3923 17.8942C82.545 17.8942 82.6323 17.8287 82.6323 17.7415C82.6323 17.6106 82.4796 17.5888 82.2396 17.5888C81.3453 17.5888 80.6255 17.6542 80.3855 17.6542C80.1456 17.6542 79.0986 17.5888 78.117 17.5888C77.8552 17.5888 77.6807 17.6106 77.6807 17.7415C77.6807 17.8287 77.7025 17.8942 77.8552 17.8942C78.0297 17.8942 78.5314 17.916 78.9241 18.0033C79.6003 18.1778 79.753 18.6578 79.7748 20.0759L80.0147 31.1588C79.3167 30.4389 76.9391 27.7772 74.7796 25.4646C71.4204 21.8649 68.1702 18.3523 67.843 17.9815C67.6249 17.7633 67.2541 17.2833 67.0796 17.2833C66.9051 17.2833 66.8396 17.5233 66.8396 18.3742L66.8178 30.8752C66.8178 32.8605 66.7087 33.4932 66.1634 33.6459C65.8362 33.755 65.4436 33.7768 65.2691 33.7768C65.16 33.7768 65.0946 33.8205 65.0946 33.9077C65.0946 34.0604 65.2254 34.0823 65.4436 34.0823C66.4252 34.0823 67.3413 34.0168 67.5376 34.0168C67.734 34.0168 68.6065 34.0823 69.8498 34.0823C70.1116 34.0823 70.2425 34.0386 70.2425 33.9077C70.2425 33.8205 70.177 33.7768 70.068 33.7768C69.8716 33.7768 69.3917 33.755 68.9773 33.6459C68.3883 33.4714 68.1702 32.9041 68.1266 31.1152L67.843 20.6649Z" fill="white"/>
</g>
<defs>
<clipPath id="clip0_5464_1270">
<rect width="83" height="34.3877" fill="white"/>
</clipPath>
</defs>
</svg>
